<svg id="svg" xmlns="http://www.w3.org/2000/svg" viewBox="40.880001068115234 50.709999084472656 404.9599914550781 131.54999542236328" height="131.54999542236328"><path d="M 95.13,77.03 L 93.12,77.22 L 90.24,79.14 L 84.48,82.98 L 78.72,87.78 L 75.84,92.58 L 69.12,101.22 L 63.36,109.86 L 60.48,114.66 L 58.56,117.54 L 57.6,119.46 L 55.68,121.38 L 55.68,122.34 L 54.72,122.34 L 53.76,124.26 L 52.8,124.26 L 52.8,125.22 L 52.8,126.18 L 51.84,126.18 L 51.84,127.14 L 50.88,128.1 L 50.88,129.06" fill="none" stroke="#565b66" stroke-width="2"></path><path d="M 54.81,76.07 L 55.68,77.22 L 57.6,80.1 L 60.48,84.9 L 63.36,87.78 L 65.28,90.66 L 66.24,93.54 L 67.2,94.5 L 69.12,96.42 L 70.08,97.38 L 71.04,99.3 L 72,100.26 L 72,101.22 L 73.92,102.18 L 73.92,103.14 L 74.88,103.14 L 74.88,104.1 L 75.84,104.1 L 75.84,105.06 L 76.8,106.02 L 77.76,106.02" fill="none" stroke="#565b66" stroke-width="2"></path><path d="M 100.89,99.11 L 106.56,99.3 L 117.12,99.3 L 145.92,99.3 L 156.48,98.34 L 162.24,98.34 L 164.16,97.38 L 166.08,97.38" fill="none" stroke="#565b66" stroke-width="2"></path><path d="M 99.93,113.51 L 106.56,113.7 L 132.48,110.82 L 141.12,109.86 L 147.84,109.86 L 150.72,109.86 L 151.68,109.86 L 153.6,109.86 L 154.56,109.86 L 155.52,109.86 L 156.48,109.86 L 157.44,109.86 L 158.4,109.86 L 158.4,110.82 L 159.36,110.82 L 160.32,110.82" fill="none" stroke="#565b66" stroke-width="2"></path><path d="M 232.41,90.47 L 228.48,90.66 L 206.4,90.66 L 197.76,91.62 L 192.96,92.58 L 191.04,93.54 L 189.12,94.5 L 188.16,94.5 L 187.2,94.5 L 184.32,95.46 L 183.36,96.42 L 182.4,97.38 L 181.44,98.34 L 180.48,98.34 L 178.56,99.3 L 177.6,101.22 L 176.64,101.22 L 176.64,102.18 L 176.64,103.14 L 178.56,103.14 L 181.44,104.1 L 190.08,106.98 L 203.52,110.82 L 211.2,111.78 L 213.12,111.78 L 217.92,113.7 L 218.88,113.7 L 221.76,114.66 L 222.72,114.66 L 223.68,114.66 L 225.6,115.62 L 226.56,116.58 L 227.52,116.58 L 228.48,116.58 L 229.44,116.58 L 229.44,117.54 L 226.56,119.46 L 223.68,120.42 L 217.92,122.34 L 208.32,124.26 L 205.44,125.22 L 202.56,125.22 L 201.6,126.18 L 200.64,126.18 L 199.68,126.18 L 198.72,127.14 L 197.76,127.14 L 197.76,128.1 L 196.8,128.1 L 195.84,128.1 L 194.88,128.1 L 193.92,128.1 L 192.96,128.1 L 192,128.1 L 191.04,128.1 L 190.08,128.1 L 190.08,129.06 L 189.12,129.06 L 188.16,130.02 L 187.2,130.02 L 187.2,130.98 L 186.24,131.94 L 185.28,131.94 L 185.28,132.9 L 187.2,132.9 L 190.08,132.9 L 234.24,133.86 L 249.6,132.9 L 255.36,132.9 L 256.32,132.9 L 257.28,132.9 L 258.24,132.9 L 258.24,133.86 L 259.2,133.86" fill="none" stroke="#565b66" stroke-width="2"></path><path d="M 192.09,145.19 L 192,147.3 L 192,151.14 L 192,155.94 L 192,158.82 L 192,162.66 L 192,163.62 L 192,165.54 L 192,166.5 L 192,167.46 L 192,168.42 L 192,169.38 L 192,170.34 L 192,171.3 L 192,172.26" fill="none" stroke="#565b66" stroke-width="2"></path><path d="M 194.01,139.42" fill="none" stroke="#565b66" stroke-width="2"></path><path d="M 216.09,60.71 L 216,62.82 L 216,64.74 L 216,76.26 L 216,81.06 L 216.96,82.98 L 216.96,84.9 L 217.92,85.86 L 217.92,86.82 L 217.92,87.78 L 217.92,88.74 L 217.92,89.7 L 218.88,89.7 L 218.88,87.78 L 219.84,84.9 L 221.76,82.02 L 224.64,79.14 L 225.6,77.22 L 227.52,75.3 L 230.4,72.42 L 231.36,71.46 L 232.32,70.5 L 233.28,70.5 L 234.24,70.5 L 235.2,70.5 L 236.16,70.5 L 237.12,71.46 L 238.08,73.38 L 238.08,75.3 L 239.04,77.22 L 240,79.14 L 240,81.06 L 240,82.98 L 240,83.94 L 240,84.9" fill="none" stroke="#565b66" stroke-width="2"></path><path d="M 309.21,121.19 L 313.92,121.38 L 331.2,123.3 L 343.68,124.26 L 349.44,124.26 L 353.28,124.26 L 355.2,124.26 L 356.16,124.26 L 357.12,124.26 L 359.04,124.26 L 360.96,124.26 L 361.92,124.26 L 362.88,124.26 L 364.8,124.26 L 365.76,124.26 L 368.64,124.26 L 370.56,124.26 L 372.48,124.26 L 374.4,124.26 L 375.36,124.26 L 377.28,124.26 L 378.24,124.26 L 380.16,124.26 L 382.08,124.26 L 385.92,124.26 L 387.84,124.26 L 389.76,124.26 L 391.68,124.26 L 394.56,124.26 L 395.52,124.26 L 399.36,124.26 L 402.24,124.26 L 404.16,124.26 L 406.08,124.26 L 407.04,124.26 L 408,124.26 L 408.96,124.26 L 410.88,124.26 L 411.84,124.26 L 413.76,124.26 L 415.68,124.26 L 416.64,124.26 L 417.6,124.26 L 418.56,124.26 L 419.52,124.26 L 420.48,124.26 L 421.44,124.26 L 422.4,124.26 L 423.36,124.26 L 424.32,124.26 L 425.28,124.26 L 426.24,124.26 L 427.2,124.26 L 428.16,124.26 L 429.12,124.26 L 429.12,123.3 L 431.04,123.3 L 432,123.3 L 432.96,123.3 L 433.92,123.3 L 434.88,123.3 L 435.84,123.3" fill="none" stroke="#565b66" stroke-width="2"></path><path d="M 174.81,80.87 L 174.72,82.02 L 174.72,82.98 L 174.72,83.94 L 173.76,85.86 L 173.76,86.82 L 173.76,87.78 L 173.76,88.74 L 173.76,89.7 L 172.8,89.7 L 172.8,90.66 L 172.8,91.62 L 172.8,92.58" fill="none" stroke="#565b66" stroke-width="2"></path><path d="M 179.61,115.42 L 177.6,115.62 L 171.84,115.62 L 167.04,115.62 L 161.28,115.62 L 156.48,115.62 L 154.56,115.62 L 151.68,115.62 L 150.72,115.62 L 149.76,115.62 L 148.8,115.62" fill="none" stroke="#565b66" stroke-width="2"></path><path d="M 160.41,131.75 L 160.32,132.9 L 161.28,135.78 L 162.24,136.74 L 162.24,138.66 L 162.24,140.58 L 163.2,142.5 L 163.2,143.46 L 163.2,144.42 L 163.2,145.38 L 163.2,146.34 L 163.2,145.38 L 163.2,144.42 L 163.2,142.5 L 163.2,141.54 L 164.16,139.62 L 164.16,138.66 L 165.12,137.7 L 165.12,136.74 L 165.12,135.78 L 166.08,134.82 L 167.04,134.82 L 168.96,134.82 L 169.92,134.82 L 170.88,134.82 L 171.84,135.78 L 172.8,136.74 L 172.8,137.7 L 173.76,137.7 L 173.76,138.66 L 173.76,139.62 L 173.76,140.58 L 174.72,140.58 L 174.72,142.5 L 175.68,144.42 L 175.68,145.38 L 175.68,146.34 L 176.64,146.34 L 176.64,147.3 L 176.64,148.26 L 176.64,149.22 L 176.64,150.18" fill="none" stroke="#565b66" stroke-width="2"></path><path d="M 360.09,95.27 L 359.04,95.46 L 354.24,97.38 L 346.56,100.26 L 343.68,102.18 L 336.96,105.06 L 334.08,106.98 L 332.16,107.94 L 330.24,109.86 L 329.28,109.86 L 328.32,110.82 L 328.32,111.78 L 327.36,111.78 L 326.4,111.78 L 326.4,112.74 L 325.44,112.74 L 325.44,113.7 L 324.48,113.7" fill="none" stroke="#565b66" stroke-width="2"></path><path d="M 324.57,96.23 L 326.4,96.42 L 327.36,97.38 L 333.12,101.22 L 336.96,103.14 L 341.76,107.94 L 344.64,108.9 L 346.56,110.82 L 348.48,111.78 L 350.4,112.74 L 352.32,113.7 L 353.28,114.66 L 353.28,115.62 L 355.2,116.58 L 356.16,118.5 L 357.12,118.5 L 358.08,119.46 L 358.08,120.42" fill="none" stroke="#565b66" stroke-width="2"></path></svg>