<svg id="svg" xmlns="http://www.w3.org/2000/svg" viewBox="241.61000061035156 96.77999877929688 329.030029296875 251.55999755859375" height="251.55999755859375"><line x1="251.61" y1="107.75" x2="469.44" y2="112.74" fill="none" stroke="#3794ff" stroke-width="2" d="M 251.61 107.75 L 469.44 112.74"></line><line x1="469.53" y1="112.55" x2="463.68" y2="291.3" fill="none" stroke="#3794ff" stroke-width="2" d="M 469.53 112.55 L 463.68 291.3"></line><line x1="463.77" y1="291.11" x2="258.24" y2="289.38" fill="none" stroke="#3794ff" stroke-width="2" d="M 463.77 291.11 L 258.24 289.38"></line><line x1="258.33" y1="289.19" x2="254.4" y2="106.98" fill="none" stroke="#3794ff" stroke-width="2" d="M 258.33 289.19 L 254.4 106.98"></line><line x1="254.49" y1="106.78" x2="336.96" y2="172.26" fill="none" stroke="#3794ff" stroke-width="2" d="M 254.49 106.78 L 336.96 172.26"></line><line x1="337.05" y1="172.07" x2="335.04" y2="337.38" fill="none" stroke="#3794ff" stroke-width="2" d="M 337.05 172.07 L 335.04 337.38"></line><line x1="335.13" y1="337.19" x2="557.76" y2="334.5" fill="none" stroke="#3794ff" stroke-width="2" d="M 335.13 337.19 L 557.76 334.5"></line><line x1="557.85" y1="334.31" x2="557.85" y2="334.31" fill="none" stroke="#3794ff" stroke-width="2" d="M 557.85 334.31 L 557.85 334.31"></line><line x1="557.85" y1="334.31" x2="558.72" y2="172.26" fill="none" stroke="#3794ff" stroke-width="2" d="M 557.85 334.31 L 558.72 172.26"></line><line x1="558.81" y1="172.07" x2="337.92" y2="173.22" fill="none" stroke="#3794ff" stroke-width="2" d="M 558.81 172.07 L 337.92 173.22"></line><line x1="466.65" y1="114.47" x2="557.76" y2="175.14" fill="none" stroke="#3794ff" stroke-width="2" d="M 466.65 114.47 L 557.76 175.14"></line><line x1="466.65" y1="289.19" x2="560.64" y2="338.34" fill="none" stroke="#3794ff" stroke-width="2" d="M 466.65 289.19 L 560.64 338.34"></line><line x1="259.29" y1="288.23" x2="336" y2="336.42" fill="none" stroke="#3794ff" stroke-width="2" d="M 259.29 288.23 L 336 336.42"></line></svg>